# xmcd CD database file
#
# Track frame offsets:
#	180
#	20133
#	36412
#	55054
#	71694
#	87247
#	112139
#	134399
#	144591
#	161757
#
# Disc length: 2465 seconds
#
# Revision: 0
# Processed by: cddbd v1.5.2PL0 Copyright (c) Steve Scherf et al.
# Submitted via: cdripper 1,0,43,1226
#
DISCID=95099f0a
DTITLE=Eric Doney - And Why Not?
DYEAR=1998
DGENRE=Jazz
TTITLE0=My Favorite Things
TTITLE1=If I Had Only
TTITLE2=Allen's Town
TTITLE3=And Why Not
TTITLE4=La Paz (Peace)
TTITLE5=Lauren
TTITLE6=Kristin
TTITLE7=Game Dance
TTITLE8=Blues No 8
TTITLE9=Epilog 99
EXTD=YEAR: 1998
EXTT0=
EXTT1=
EXTT2=
EXTT3=
EXTT4=
EXTT5=
EXTT6=
EXTT7=
EXTT8=
EXTT9=
PLAYORDER=
